<svg t="1629251769896" class="icon" viewBox="0 0 1024 1024" version="1.1" xmlns="http://www.w3.org/2000/svg" p-id="3716" width="200" height="200"><path d="M640.5 852H280.259a34.39 34.39 0 0 1-13.236-2.635 34.388 34.388 0 0 1-11.216-7.498 34.398 34.398 0 0 1-7.488-11.199 34.436 34.436 0 0 1-2.639-13.246v-360.24c0-4.561 0.886-9.012 2.632-13.232a34.422 34.422 0 0 1 7.498-11.218 34.407 34.407 0 0 1 11.222-7.498 34.37 34.37 0 0 1 13.228-2.631H640.5c4.567 0 9.021 0.887 13.238 2.636a34.395 34.395 0 0 1 11.213 7.496 34.39 34.39 0 0 1 7.493 11.211 34.39 34.39 0 0 1 2.634 13.236v360.24c0 4.57-0.888 9.025-2.638 13.243a34.43 34.43 0 0 1-7.495 11.208 34.364 34.364 0 0 1-11.212 7.492A34.357 34.357 0 0 1 640.5 852zM280.259 452.603c-0.628 0-1.166 0.107-1.745 0.347a4.357 4.357 0 0 0-1.49 0.995 4.36 4.36 0 0 0-0.993 1.481 4.39 4.39 0 0 0-0.351 1.756v360.24c0 0.629 0.108 1.17 0.351 1.754 0.234 0.566 0.551 1.04 0.989 1.479 0.451 0.45 0.907 0.756 1.485 0.995a4.38 4.38 0 0 0 1.754 0.351H640.5c0.628 0 1.165-0.106 1.742-0.347a4.365 4.365 0 0 0 1.487-0.99c0.447-0.447 0.763-0.92 1.003-1.499a4.338 4.338 0 0 0 0.346-1.742v-360.24c0-0.63-0.107-1.17-0.349-1.751a4.372 4.372 0 0 0-0.994-1.486 4.434 4.434 0 0 0-1.488-0.994 4.357 4.357 0 0 0-1.747-0.348H280.259z" fill="#ffffff" p-id="3717"></path><path d="M526.456 452.603H394.302a39.23 39.23 0 0 1-13.615-2.417c-4.442-1.635-8.455-4.026-11.92-7.104-3.595-3.197-6.419-6.968-8.402-11.213-2.052-4.405-3.088-9.058-3.088-13.844V206.579c0-4.788 1.037-9.441 3.081-13.829 1.977-4.246 4.805-8.022 8.403-11.223 3.469-3.083 7.482-5.474 11.933-7.112A39.202 39.202 0 0 1 394.302 172h132.154c4.684 0 9.265 0.813 13.616 2.417 4.453 1.642 8.463 4.032 11.922 7.106 3.604 3.206 6.432 6.982 8.409 11.229a32.512 32.512 0 0 1 3.078 13.827v211.446c0 4.79-1.036 9.442-3.08 13.829-1.989 4.258-4.813 8.028-8.4 11.22-3.468 3.081-7.478 5.471-11.927 7.111a39.245 39.245 0 0 1-13.618 2.418zM394.302 202a9.21 9.21 0 0 0-3.238 0.565c-0.951 0.35-1.702 0.789-2.371 1.383-0.698 0.622-0.985 1.135-1.14 1.467-0.196 0.421-0.276 0.757-0.276 1.163v211.446c0 0.296 0.033 0.643 0.276 1.163 0.244 0.523 0.61 0.997 1.146 1.472 0.663 0.589 1.414 1.028 2.356 1.375 1.04 0.383 2.1 0.568 3.247 0.568h132.154a9.224 9.224 0 0 0 3.243-0.566c0.933-0.344 1.709-0.797 2.368-1.383 0.528-0.469 0.895-0.943 1.147-1.482 0.188-0.403 0.267-0.739 0.267-1.146V206.579c0-0.407-0.079-0.743-0.272-1.159-0.157-0.336-0.443-0.85-1.147-1.476-0.653-0.581-1.429-1.033-2.366-1.378a9.212 9.212 0 0 0-3.239-0.565H394.302z" fill="#ffffff" p-id="3718"></path><path d="M366.403 293.386h187.951v30H366.403zM366.403 332.543h187.951v30H366.403zM366.403 371.699h187.951v30H366.403zM763.32 620.977H661.514c-8.284 0-15-6.716-15-15s6.716-15 15-15H763.32c8.284 0 15 6.716 15 15s-6.716 15-15 15zM763.32 683.627H660.898c-8.284 0-15-6.716-15-15s6.716-15 15-15H763.32c8.284 0 15 6.716 15 15s-6.716 15-15 15zM763.32 746.277H660.898c-8.284 0-15-6.716-15-15s6.716-15 15-15H763.32c8.284 0 15 6.716 15 15s-6.716 15-15 15z" p-id="3719" fill="#ffffff"></path><path d="M483.873 726.699h-46.988c-4.563 0-9.017-0.887-13.235-2.636a34.386 34.386 0 0 1-11.215-7.495 34.428 34.428 0 0 1-7.49-11.201 34.446 34.446 0 0 1-2.638-13.246v-46.988c0-4.563 0.886-9.015 2.632-13.232a34.408 34.408 0 0 1 7.499-11.219 34.392 34.392 0 0 1 11.219-7.495 34.386 34.386 0 0 1 13.229-2.632h46.988c4.566 0 9.02 0.887 13.237 2.636a34.45 34.45 0 0 1 11.21 7.49 34.4 34.4 0 0 1 7.5 11.22 34.419 34.419 0 0 1 2.631 13.232v46.988a34.41 34.41 0 0 1-2.631 13.231 34.468 34.468 0 0 1-7.494 11.214c-3.227 3.227-6.999 5.748-11.217 7.497s-8.672 2.636-13.237 2.636z m-46.988-86.144c-0.628 0-1.166 0.107-1.746 0.348a4.36 4.36 0 0 0-1.49 0.996 4.343 4.343 0 0 0-0.991 1.477 4.402 4.402 0 0 0-0.351 1.758v46.988c0 0.629 0.108 1.171 0.351 1.757 0.234 0.563 0.551 1.037 0.991 1.477a4.34 4.34 0 0 0 1.482 0.993 4.374 4.374 0 0 0 1.754 0.352h46.988c0.627 0 1.165-0.107 1.745-0.348a4.418 4.418 0 0 0 1.492-0.995c0.439-0.44 0.757-0.915 0.997-1.492 0.235-0.57 0.344-1.112 0.344-1.743v-46.988c0-0.632-0.108-1.174-0.35-1.758a4.386 4.386 0 0 0-0.994-1.481 4.445 4.445 0 0 0-1.489-0.991 4.354 4.354 0 0 0-1.745-0.348h-46.988z" fill="#ffffff" p-id="3720"></path></svg>